<?xml version="1.0" standalone="no"?>
<!DOCTYPE svg PUBLIC "-//W3C//DTD SVG 20010904//EN"
 "http://www.w3.org/TR/2001/REC-SVG-20010904/DTD/svg10.dtd">
<svg version="1.0" xmlns="http://www.w3.org/2000/svg"
 width="244.000000pt" height="244.000000pt" viewBox="0 0 244.000000 244.000000"
 preserveAspectRatio="xMidYMid meet">
<metadata>
Created by potrace 1.14, written by Peter Selinger 2001-2017
</metadata>
<g transform="translate(0.000000,244.000000) scale(0.100000,-0.100000)"
fill="#000000" stroke="none">
<path d="M1100 2409 c-30 -10 -59 -20 -64 -22 -17 -4 -50 -31 -96 -77 -41 -41
-300 -464 -300 -490 0 -5 -4 -10 -8 -10 -5 0 -16 -15 -25 -32 -9 -18 -30 -55
-46 -83 -16 -27 -36 -61 -44 -75 -49 -86 -131 -226 -136 -230 -3 -3 -14 -21
-23 -40 -10 -19 -28 -53 -42 -75 -45 -75 -184 -312 -208 -356 -14 -24 -34 -60
-46 -80 -40 -72 -57 -152 -57 -269 1 -165 44 -278 149 -389 131 -137 310 -198
498 -167 80 13 217 78 268 127 8 8 58 48 110 89 52 40 97 76 100 80 12 15 78
60 88 60 6 0 49 -31 96 -70 46 -38 89 -70 95 -70 6 0 11 -4 11 -8 0 -14 126
-110 193 -147 169 -93 366 -92 540 2 50 27 177 144 177 162 0 5 6 16 14 23 14
14 55 101 61 129 2 9 8 33 14 53 14 52 11 233 -5 279 -7 20 -11 37 -8 37 3 0
-8 26 -25 57 -17 31 -31 62 -31 69 0 7 -4 14 -8 16 -7 3 -62 92 -85 138 -4 8
-19 33 -33 55 -13 22 -27 48 -31 57 -3 10 -9 18 -13 18 -4 0 -10 8 -13 18 -3
9 -19 38 -34 64 -87 146 -113 192 -113 199 0 5 -4 9 -9 9 -5 0 -12 11 -15 25
-4 14 -11 25 -16 25 -6 0 -10 4 -10 10 0 5 -37 71 -81 147 -45 76 -91 154
-102 173 -64 114 -132 226 -140 231 -5 3 -9 10 -9 15 -1 5 -12 26 -24 46 -13
21 -24 40 -24 43 0 3 -18 33 -41 68 -46 69 -109 123 -184 156 -71 32 -191 37
-265 10z m174 -221 c3 3 6 0 6 -6 0 -7 6 -12 13 -12 8 0 23 -10 34 -22 20 -22
29 -37 92 -148 13 -25 27 -47 30 -50 3 -3 14 -20 24 -38 9 -17 25 -47 35 -64
9 -18 19 -35 22 -38 10 -10 31 -45 36 -62 4 -10 11 -18 16 -18 5 0 7 -4 4 -9
-3 -5 1 -14 9 -21 8 -7 15 -19 15 -26 0 -8 5 -14 10 -14 6 0 10 -4 10 -9 0 -5
33 -66 74 -135 41 -69 77 -135 81 -146 3 -11 10 -20 14 -20 4 0 18 -22 32 -50
13 -27 27 -50 32 -50 4 0 7 -4 7 -9 0 -5 37 -71 81 -147 89 -150 170 -290 199
-341 53 -91 60 -232 16 -326 -23 -47 -109 -147 -127 -147 -4 0 -24 -7 -45 -17
-118 -50 -220 -27 -354 78 -41 33 -88 70 -103 82 -16 12 -41 32 -55 45 -15 13
-37 31 -50 39 l-23 16 63 61 c53 50 107 130 114 169 1 4 2 8 4 10 20 25 20
192 -1 257 -72 234 -336 342 -556 229 -41 -21 -133 -99 -133 -113 0 -4 -9 -19
-21 -35 -11 -15 -21 -34 -22 -42 -2 -8 -6 -19 -10 -25 -4 -7 -10 -29 -13 -50
-28 -164 16 -297 133 -403 43 -39 61 -61 50 -61 -9 0 -17 -4 -17 -9 0 -5 -26
-28 -57 -52 -32 -24 -63 -48 -69 -54 -7 -5 -20 -17 -31 -25 -10 -8 -39 -31
-63 -51 -49 -39 -127 -79 -153 -79 -9 0 -19 -5 -22 -10 -4 -6 -13 -7 -23 -1
-9 5 -28 7 -42 4 -38 -6 -134 26 -171 58 -19 16 -36 29 -39 29 -3 0 -14 15
-25 33 -10 17 -21 34 -25 37 -12 10 -37 87 -36 113 1 15 -1 27 -4 27 -3 0 -5
18 -5 40 0 22 3 40 6 40 3 0 5 11 4 25 -3 25 71 182 99 211 9 8 16 20 16 25 0
5 18 38 40 73 22 35 40 68 40 75 0 6 5 11 10 11 6 0 10 4 10 10 0 5 20 42 44
82 115 193 214 364 214 372 0 5 4 12 9 15 8 5 26 35 110 181 8 14 26 43 39 65
13 22 27 48 30 58 4 9 11 17 16 17 5 0 6 5 3 10 -3 6 -2 10 2 10 5 0 17 17 28
38 11 20 31 55 44 77 14 22 26 42 26 45 2 12 62 105 80 124 37 39 92 57 137
45 14 -4 29 -5 32 -1z m24 -1150 c37 -25 62 -65 70 -110 7 -39 8 -64 3 -70 -2
-2 -4 -14 -7 -28 -4 -24 -41 -64 -112 -123 l-33 -27 -37 28 c-67 50 -84 67
-102 102 -21 42 -23 124 -4 162 17 33 65 79 75 72 4 -2 10 0 14 5 8 15 109 6
133 -11z"/>
</g>
</svg>
