<?xml version="1.0" standalone="no"?>
<!DOCTYPE svg PUBLIC "-//W3C//DTD SVG 20010904//EN"
 "http://www.w3.org/TR/2001/REC-SVG-20010904/DTD/svg10.dtd">
<svg version="1.0" xmlns="http://www.w3.org/2000/svg"
 width="118.000000pt" height="118.000000pt" viewBox="0 0 118.000000 118.000000"
 preserveAspectRatio="xMidYMid meet">
<metadata>
Created by potrace 1.14, written by Peter Selinger 2001-2017
</metadata>
<g transform="translate(0.000000,118.000000) scale(0.100000,-0.100000)"
fill="#000000" stroke="none">
<path d="M353 1100 c4 -12 -5 -14 -45 -11 -35 2 -48 0 -44 -8 4 -6 3 -11 -3
-11 -5 0 -11 6 -14 13 -3 9 -8 9 -18 -2 -12 -12 -12 -13 0 -6 10 6 12 4 7 -4
-6 -9 -11 -9 -21 -1 -18 15 -39 -12 -22 -29 10 -11 8 -11 -10 -2 -20 10 -22 9
-16 -6 6 -16 5 -16 -10 -4 -15 12 -17 12 -11 -3 3 -9 11 -16 17 -16 6 0 8 -3
5 -6 -4 -3 -17 0 -30 7 -20 11 -22 10 -10 -3 10 -13 9 -16 -8 -21 -14 -4 -18
-10 -13 -23 5 -12 3 -15 -6 -9 -11 6 -11 3 0 -16 12 -23 11 -23 -7 -9 -18 15
-18 14 -1 -12 10 -17 13 -29 7 -33 -6 -4 -8 -10 -5 -14 2 -5 -4 -19 -15 -31
-26 -30 -25 -33 3 -19 12 6 19 8 15 4 -4 -4 -3 -17 3 -29 10 -20 9 -20 -5 -2
-14 17 -15 17 -12 -8 1 -14 6 -29 11 -34 4 -4 5 -1 1 6 -4 6 -2 12 3 12 14 0
14 -17 1 -25 -13 -8 -13 -25 1 -25 5 0 7 6 3 13 -4 7 -3 9 2 4 5 -5 9 -12 9
-15 2 -23 18 -51 26 -47 5 4 10 -3 10 -14 2 -34 4 -39 13 -48 5 -4 6 -3 2 4
-3 6 -2 14 2 17 5 3 9 -5 8 -17 -1 -13 7 -26 19 -32 11 -6 20 -15 20 -20 2
-22 17 -55 26 -55 5 0 9 -10 9 -22 0 -19 2 -20 10 -8 5 8 10 10 10 4 0 -5 -5
-15 -12 -22 -9 -9 -8 -12 6 -12 19 0 45 -26 46 -45 0 -5 -5 -3 -10 5 -7 12 -9
10 -8 -7 2 -14 7 -19 17 -15 8 3 12 1 9 -4 -6 -9 17 -36 24 -29 2 2 5 -5 6
-15 1 -11 3 -29 4 -40 1 -11 8 -18 14 -16 6 2 17 -7 23 -20 6 -14 7 -23 3 -20
-5 3 -9 -1 -9 -9 0 -11 5 -12 21 -3 19 10 20 10 7 -5 -12 -15 -11 -17 4 -17
15 0 16 -2 4 -17 -8 -9 -9 -14 -3 -11 5 4 18 -4 28 -17 10 -14 22 -22 26 -20
5 3 6 -4 3 -15 -4 -14 0 -20 11 -20 15 0 21 -12 17 -33 -1 -5 3 -6 9 -2 6 3 8
10 6 14 -3 3 4 7 14 7 15 0 17 -3 7 -15 -10 -12 -8 -13 12 -6 18 5 22 4 16 -6
-6 -11 -5 -12 6 -2 17 17 32 17 23 1 -6 -10 -5 -10 7 -1 12 10 18 10 28 0 10
-9 12 -9 9 3 -2 8 -7 18 -13 22 -6 5 -5 8 3 8 7 0 15 -7 18 -15 4 -8 10 -15
16 -15 5 0 6 5 3 10 -4 6 -1 17 5 25 9 11 17 12 32 4 16 -9 19 -8 13 2 -6 9
-3 11 9 6 12 -5 15 -3 9 6 -4 6 -8 18 -9 25 -2 10 1 11 12 1 12 -10 13 -9 8 6
-5 11 -4 16 3 12 6 -4 9 6 8 23 -1 16 2 27 7 24 4 -3 8 0 8 6 0 7 7 9 16 6 8
-3 12 -2 9 4 -3 6 0 10 7 10 9 0 9 3 -2 10 -12 7 -12 10 -1 10 8 0 11 6 7 16
-5 12 -1 14 17 9 12 -3 18 -3 12 2 -18 15 -17 36 1 29 15 -6 15 -4 3 11 -12
15 -12 16 4 10 17 -6 22 7 17 42 -1 9 4 12 16 7 14 -5 15 -4 4 9 -11 13 -10
14 5 9 15 -6 16 -5 5 17 -13 23 -12 23 5 9 11 -9 16 -10 11 -2 -4 6 -4 18 1
25 4 6 8 17 8 22 0 6 8 9 18 9 13 -2 15 1 7 11 -7 9 -4 17 13 31 l22 19 -20
-25 -20 -25 26 23 c19 17 26 31 24 57 -1 18 1 34 4 33 22 -2 41 3 41 12 0 5
-8 6 -17 3 -17 -7 -17 -6 0 11 9 10 14 22 11 28 -4 7 -2 8 5 4 6 -4 8 -12 5
-18 -4 -7 -2 -8 5 -4 6 4 9 18 7 31 -3 14 0 28 6 31 7 4 8 2 4 -4 -4 -7 -2
-12 3 -12 6 0 11 9 11 20 0 11 6 20 13 20 8 0 7 4 -3 10 -13 8 -12 10 3 10 9
0 17 3 18 8 0 4 2 17 5 30 2 14 0 21 -6 17 -5 -3 -10 -1 -10 4 0 6 6 11 13 11
8 0 7 4 -3 10 -12 8 -12 10 5 11 l20 0 -20 8 c-11 5 -23 7 -27 4 -15 -8 -8 5
9 18 15 12 16 12 9 -1 -6 -10 -3 -10 10 2 15 14 16 20 5 30 -10 11 -11 9 -5
-7 6 -17 5 -18 -7 -7 -11 10 -11 19 -1 45 11 30 10 31 -5 12 -15 -20 -15 -20
-10 2 3 13 -1 24 -9 27 -9 3 -11 -1 -8 -12 5 -14 4 -15 -5 -2 -6 9 -7 18 -1
24 12 12 13 26 3 25 -23 -4 -35 3 -30 16 4 8 1 17 -5 21 -6 4 -8 3 -4 -4 3 -6
2 -13 -4 -17 -5 -3 -10 1 -10 9 0 9 -6 16 -14 16 -8 0 -18 5 -22 12 -5 7 -3 8
7 3 12 -8 12 -6 0 8 -14 18 -26 23 -17 8 3 -5 -1 -12 -9 -15 -9 -3 -18 1 -21
9 -4 10 -20 15 -46 15 -29 0 -37 3 -32 13 5 8 2 7 -9 -2 -10 -8 -20 -11 -24
-8 -10 10 -34 -14 -26 -27 3 -6 -4 -2 -17 9 -13 11 -20 14 -16 8 12 -21 -4
-36 -22 -21 -12 10 -14 10 -8 1 4 -7 2 -14 -3 -14 -6 -1 -16 -2 -22 -3 -6 0
-16 -9 -23 -18 -7 -10 -19 -18 -27 -18 -8 0 -10 -3 -4 -8 6 -4 11 -14 13 -22
3 -11 -3 -9 -20 5 -13 11 -20 16 -16 12 3 -5 0 -16 -8 -26 -18 -21 -81 -23
-76 -2 1 7 -7 15 -18 18 -13 4 -19 11 -16 20 3 8 1 11 -5 8 -5 -4 -16 -1 -24
5 -8 6 -20 8 -27 4 -10 -6 -9 -3 1 9 12 15 11 17 -3 17 -10 0 -15 4 -12 9 5 7
-14 21 -34 25 -3 1 -11 5 -17 9 -9 6 -11 3 -7 -7 9 -25 -12 -19 -25 7 -6 12
-10 15 -8 7z m472 -20 c3 -5 1 -10 -4 -10 -6 0 -11 5 -11 10 0 6 2 10 4 10 3
0 8 -4 11 -10z m-396 -23 c0 -9 -2 -8 -6 1 -2 6 -10 9 -15 6 -7 -4 -8 -2 -4 5
9 13 26 5 25 -12z m-219 3 c0 -5 -5 -10 -11 -10 -5 0 -7 5 -4 10 3 6 8 10 11
10 2 0 4 -4 4 -10z m506 -32 c4 -7 3 -8 -4 -4 -7 4 -12 2 -12 -5 0 -7 -3 -10
-6 -6 -6 5 3 27 11 27 2 0 7 -5 11 -12z m151 -53 c0 -8 -4 -15 -9 -15 -10 0
-11 14 -1 23 9 10 10 9 10 -8z m-497 -20 c13 4 22 -1 30 -15 6 -12 17 -19 25
-16 19 7 27 -5 14 -20 -8 -10 -6 -12 11 -9 19 4 20 2 8 -12 -9 -12 -9 -15 0
-9 8 5 12 0 12 -14 0 -12 -4 -19 -8 -16 -5 3 -9 -2 -9 -10 0 -9 6 -13 14 -10
8 3 11 1 8 -4 -3 -6 -13 -10 -21 -10 -8 0 -14 -9 -14 -19 0 -11 -4 -23 -10
-26 -5 -3 -10 -11 -10 -16 0 -6 4 -8 9 -5 11 7 8 -21 -4 -31 -4 -4 -5 -2 -1 4
5 9 2 11 -10 6 -11 -4 -13 -8 -6 -11 7 -2 9 -9 5 -15 -4 -6 -1 -8 8 -5 10 4
15 -1 15 -13 0 -14 -3 -15 -13 -7 -10 8 -12 7 -7 -6 3 -9 14 -16 23 -16 14 0
14 -2 1 -10 -11 -7 -11 -10 -2 -10 7 0 11 -4 8 -8 -11 -18 26 -53 52 -50 15 1
26 -2 25 -7 0 -6 6 -17 15 -25 14 -13 15 -12 9 5 -7 20 -7 20 8 1 8 -11 15
-15 15 -9 0 6 11 11 25 11 14 0 25 -5 25 -11 0 -6 7 -2 16 9 8 10 13 14 10 9
-2 -6 4 -11 14 -11 14 0 16 4 10 16 -6 12 -5 17 5 17 8 0 12 -4 9 -9 -3 -4 2
-5 11 -2 9 4 14 13 11 20 -3 8 1 14 10 14 10 0 14 6 11 15 -4 8 -1 17 5 21 7
5 8 2 3 -7 -5 -8 4 -3 18 10 15 14 27 29 27 35 0 6 -4 5 -9 -3 -6 -10 -10 -10
-16 -1 -4 6 1 17 10 24 16 12 16 13 0 29 -9 9 -13 17 -9 17 3 0 1 7 -6 15 -10
12 -9 15 6 15 16 0 16 2 4 9 -8 6 -19 7 -25 4 -5 -4 -7 -2 -2 2 4 5 -1 17 -10
28 -10 11 -12 17 -5 13 7 -4 12 -1 12 9 0 9 -4 13 -10 10 -5 -3 -10 3 -10 14
0 12 5 21 11 21 5 0 7 -5 3 -12 -5 -7 -3 -8 6 -3 10 6 9 11 -6 23 -18 13 -18
14 8 10 19 -4 25 -1 21 9 -3 7 -10 10 -16 6 -6 -3 -7 -1 -3 6 4 6 11 9 15 6 5
-2 16 4 26 15 15 16 21 18 33 7 10 -7 13 -8 9 -1 -4 7 0 17 8 24 13 11 14 10
9 -3 -6 -16 7 -16 64 -3 14 3 20 1 16 -5 -3 -6 2 -9 12 -7 13 2 20 -4 22 -20
2 -12 7 -20 12 -17 14 9 24 -18 25 -67 0 -35 -2 -44 -11 -37 -8 7 -15 6 -20
-2 -4 -7 -3 -9 3 -6 6 4 13 0 17 -8 3 -9 0 -15 -9 -15 -19 0 -29 -20 -16 -33
13 -13 -4 -37 -26 -37 -8 0 -11 -4 -8 -10 3 -5 1 -10 -4 -10 -6 0 -11 -4 -11
-10 0 -5 8 -7 18 -4 14 5 14 4 2 -4 -10 -8 -18 -8 -27 0 -10 8 -12 7 -7 -6 3
-9 1 -16 -6 -16 -6 0 -8 -5 -4 -11 4 -8 9 -7 16 2 8 11 9 11 5 -1 -2 -8 -13
-14 -25 -14 -13 1 -19 -3 -15 -12 3 -8 10 -11 17 -7 7 4 7 1 -1 -9 -7 -8 -10
-18 -6 -22 4 -4 0 -4 -10 0 -14 5 -16 2 -10 -12 6 -17 5 -17 -10 -5 -15 12
-17 12 -11 -4 6 -14 4 -16 -7 -10 -12 7 -12 6 -1 -7 10 -13 10 -19 -2 -31 -8
-8 -12 -18 -8 -22 4 -5 0 -6 -10 -2 -24 8 -30 -4 -10 -20 9 -8 12 -12 6 -9 -7
3 -15 -1 -18 -9 -3 -8 -9 -14 -13 -13 -8 3 -13 -5 -13 -23 0 -5 5 -7 12 -3 7
4 8 3 4 -5 -6 -9 -11 -9 -21 -1 -11 9 -13 8 -10 -8 2 -12 -3 -23 -12 -26 -8
-4 -13 -13 -9 -21 3 -8 0 -14 -7 -12 -7 1 -11 -6 -9 -15 1 -9 -3 -20 -9 -24
-7 -4 -9 -3 -6 3 3 5 0 10 -8 10 -8 0 -12 -4 -9 -9 3 -5 0 -17 -7 -26 -11 -14
-11 -15 1 -4 8 6 18 12 23 12 12 0 -15 -25 -35 -33 -10 -3 -18 -12 -18 -19 0
-9 3 -9 11 2 9 13 10 13 6 0 -2 -8 -12 -14 -21 -14 -9 1 -16 -4 -16 -12 0 -7
-4 -15 -8 -18 -11 -7 -9 25 3 44 8 13 6 13 -8 1 -9 -7 -15 -17 -12 -21 3 -4
-2 -10 -9 -13 -10 -4 -14 0 -11 13 2 10 -3 21 -10 24 -10 3 -12 0 -9 -12 4
-12 2 -11 -7 3 -7 11 -19 26 -26 33 -7 8 -11 18 -8 23 4 5 2 9 -3 9 -6 0 -13
7 -16 16 -5 13 -4 14 7 6 10 -9 14 -8 14 2 0 8 -9 13 -22 11 -12 -1 -22 4 -22
11 0 7 7 10 16 6 13 -5 13 -3 -2 12 -9 10 -14 22 -11 28 4 7 2 8 -5 4 -6 -4
-8 -12 -5 -18 4 -7 2 -8 -5 -4 -6 4 -9 12 -6 17 4 5 0 9 -7 9 -9 0 -9 3 2 10
13 8 13 10 -2 10 -9 0 -20 5 -24 12 -4 6 -3 8 2 5 5 -3 10 3 10 13 0 14 -3 16
-13 8 -11 -8 -12 -7 -7 7 5 13 4 16 -4 11 -7 -4 -12 -1 -12 9 0 9 4 13 10 10
6 -4 7 1 3 11 -4 11 -8 13 -11 6 -5 -17 -19 -15 -26 4 -3 8 -2 13 2 10 5 -3 9
1 9 8 0 9 -7 12 -16 8 -13 -5 -14 -3 -3 10 10 13 9 15 -13 12 -22 -2 -24 0
-14 12 14 17 23 19 13 2 -5 -7 -3 -8 5 -4 13 9 6 21 -12 21 -6 0 -16 10 -23
22 -6 13 -14 20 -19 15 -5 -4 -4 0 1 8 12 21 14 41 3 34 -5 -3 -6 -10 -3 -16
4 -7 2 -8 -5 -4 -6 4 -9 12 -6 17 4 5 0 9 -7 9 -9 0 -9 3 2 10 13 8 12 10 -4
10 -13 0 -16 5 -12 17 4 10 4 14 0 11 -12 -12 -39 25 -36 49 2 12 -2 23 -8 23
-6 0 -8 -5 -4 -12 4 -6 3 -8 -4 -4 -10 6 -7 49 4 67 2 4 -1 11 -7 15 -7 4 -9
3 -5 -4 3 -6 2 -13 -3 -16 -5 -4 -8 2 -7 11 2 9 8 19 14 21 6 2 8 10 5 19 -5
12 -3 14 8 8 11 -7 11 -5 -1 10 -14 17 -13 17 10 10 24 -7 24 -7 5 9 -20 15
-20 15 3 11 19 -3 25 3 24 25 0 3 16 6 36 7 26 1 32 -1 22 -7 -11 -7 -11 -10
-2 -10 7 0 16 8 20 18 6 16 7 16 10 -1 3 -12 9 -16 22 -12z m725 -174 c3 -5 1
-12 -5 -16 -5 -3 -10 1 -10 9 0 18 6 21 15 7z m-470 -22 c3 6 12 11 18 11 9 0
9 -2 1 -8 -7 -4 -12 -20 -13 -37 -1 -56 -4 -62 -25 -60 -12 1 -27 3 -35 4 -10
1 -11 4 -2 15 7 8 8 17 3 20 -13 8 -12 55 1 63 5 3 7 2 4 -4 -3 -5 0 -10 7
-10 8 0 12 7 9 16 -4 12 -1 12 10 -2 10 -12 17 -14 22 -8z m345 7 c0 -3 -4 -8
-10 -11 -5 -3 -10 -1 -10 4 0 6 5 11 10 11 6 0 10 -2 10 -4z m-416 -38 c-3 -5
-1 -15 5 -22 9 -10 8 -15 -3 -19 -9 -4 -18 -1 -22 5 -4 7 -3 8 4 4 7 -4 12 -2
12 3 0 6 -4 11 -8 11 -5 0 -9 6 -9 13 0 8 6 14 13 14 7 0 11 -4 8 -9z m211
-26 c-3 -3 -11 0 -18 7 -9 10 -8 11 6 5 10 -3 15 -9 12 -12z m-8 -48 c-3 -3
-12 -4 -19 -1 -8 3 -5 6 6 6 11 1 17 -2 13 -5z m-292 -33 c-3 -5 2 -17 11 -25
8 -9 11 -16 5 -16 -13 0 -32 35 -24 44 9 9 15 7 8 -3z m508 -65 c4 -10 1 -13
-8 -9 -8 3 -12 9 -9 14 7 12 11 11 17 -5z"/>
<path d="M774 928 l-19 -23 23 19 c21 18 27 26 19 26 -2 0 -12 -10 -23 -22z"/>
<path d="M956 902 c-3 -5 1 -9 9 -9 8 0 12 4 9 9 -3 4 -7 8 -9 8 -2 0 -6 -4
-9 -8z"/>
<path d="M966 867 c3 -10 9 -15 12 -12 3 3 0 11 -7 18 -10 9 -11 8 -5 -6z"/>
<path d="M926 728 c3 -5 10 -6 15 -3 13 9 11 12 -6 12 -8 0 -12 -4 -9 -9z"/>
<path d="M500 560 c-9 -6 -10 -10 -3 -10 6 0 15 5 18 10 8 12 4 12 -15 0z"/>
<path d="M795 520 c-3 -5 -1 -10 4 -10 6 0 11 5 11 10 0 6 -2 10 -4 10 -3 0
-8 -4 -11 -10z"/>
<path d="M516 281 c-4 -5 -2 -12 3 -15 5 -4 12 -2 15 3 4 5 2 12 -3 15 -5 4
-12 2 -15 -3z"/>
<path d="M610 719 c0 -5 5 -7 10 -4 6 3 10 8 10 11 0 2 -4 4 -10 4 -5 0 -10
-5 -10 -11z"/>
<path d="M600 680 c-9 -6 -10 -10 -3 -10 6 0 15 5 18 10 8 12 4 12 -15 0z"/>
<path d="M486 1028 c3 -5 10 -6 15 -3 13 9 11 12 -6 12 -8 0 -12 -4 -9 -9z"/>
<path d="M530 1006 c0 -2 7 -7 16 -10 8 -3 12 -2 9 4 -6 10 -25 14 -25 6z"/>
<path d="M555 970 c-3 -5 -1 -10 4 -10 6 0 11 5 11 10 0 6 -2 10 -4 10 -3 0
-8 -4 -11 -10z"/>
<path d="M74 885 c1 -8 4 -16 7 -17 2 -2 3 -1 2 1 -2 2 2 10 8 18 9 10 8 13
-4 13 -8 0 -14 -7 -13 -15z"/>
<path d="M180 576 c0 -2 7 -7 16 -10 8 -3 12 -2 9 4 -6 10 -25 14 -25 6z"/>
<path d="M260 436 c0 -2 7 -7 16 -10 8 -3 12 -2 9 4 -6 10 -25 14 -25 6z"/>
<path d="M316 347 c3 -10 9 -15 12 -12 3 3 0 11 -7 18 -10 9 -11 8 -5 -6z"/>
<path d="M766 194 c-5 -14 -4 -15 9 -4 17 14 19 20 6 20 -5 0 -12 -7 -15 -16z"/>
<path d="M436 145 c4 -8 11 -15 16 -15 6 0 5 6 -2 15 -7 8 -14 15 -16 15 -2 0
-1 -7 2 -15z"/>
<path d="M676 101 c-3 -5 1 -11 9 -14 9 -4 12 -1 8 9 -6 16 -10 17 -17 5z"/>
</g>
</svg>
